#N canvas 29 2 1895 1109 16;
#X obj 181 211 cnv 24 346 228 empty empty empty 20 12 0 24 #e7e6ff #404040 0;
#X obj 184 299 tgl 33 0 mm1b1 empty empty 0 -17 0 24 #feffc6 #000000 #000000 0 1;
#X obj 181 689 sel 0;
#X msg 165 720 144 \, 1 \, 0;
#X msg 158 750 144 \, 1 \, 127;
#X obj 696 1092 midiout;
#X obj 184 375 tgl 33 0 mm1b3 empty empty 0 -17 0 24 #ffc7c6 #ff0400 #000000 0 1;
#X obj 188 821 sel 0;
#X obj 222 299 tgl 33 0 mm2b1 empty empty 0 -17 0 24 #feffc6 #000000 #000000 0 1;
#X obj 301 689 sel 0;
#X obj 222 375 tgl 33 0 mm2b3 empty empty 0 -17 0 24 #ffc7c6 #ff0400 #000000 0 1;
#X obj 306 822 sel 0;
#X msg 285 720 144 \, 4 \, 0;
#X msg 278 750 144 \, 4 \, 127;
#X obj 260 299 tgl 33 0 mm3b1 empty empty 0 -17 0 24 #feffc6 #000000 #000000 0 1;
#X obj 418 689 sel 0;
#X obj 260 375 tgl 33 0 mm3b3 empty empty 0 -17 0 24 #ffc7c6 #ff0400 #000000 0 1;
#X obj 425 821 sel 0;
#X obj 298 299 tgl 33 0 mm4b1 empty empty 0 -17 0 24 #feffc6 #000000 #000000 0 1;
#X obj 541 689 sel 0;
#X obj 298 375 tgl 33 0 mm4b3 empty empty 0 -17 0 24 #ffc7c6 #ff0400 #000000 0 1;
#X obj 546 820 sel 0;
#X msg 402 720 144 \, 7 \, 0;
#X msg 395 750 144 \, 7 \, 127;
#X msg 525 720 144 \, 10 \, 0;
#X msg 518 750 144 \, 10 \, 127;
#X obj 336 299 tgl 33 0 mm5b1 empty empty 0 -17 0 24 #feffc6 #000000 #000000 0 1;
#X obj 672 690 sel 0;
#X obj 336 375 tgl 33 0 mm5b3 empty empty 0 -17 0 24 #ffc7c6 #ff0400 #000000 0 1;
#X obj 679 820 sel 0;
#X obj 374 299 tgl 33 0 mm6b1 empty empty 0 -17 0 24 #feffc6 #000000 #000000 0 1;
#X obj 805 689 sel 0;
#X obj 374 375 tgl 33 0 mm6b3 empty empty 0 -17 0 24 #ffc7c6 #ff0400 #000000 0 1;
#X obj 810 820 sel 0;
#X obj 412 299 tgl 33 0 mm7b1 empty empty 0 -17 0 24 #feffc6 #000000 #000000 0 1;
#X obj 938 690 sel 0;
#X obj 412 375 tgl 33 0 mm7b3 empty empty 0 -17 0 24 #ffc7c6 #ff0400 #000000 0 1;
#X obj 945 820 sel 0;
#X obj 450 299 tgl 33 0 mm8b1 empty empty 0 -17 0 24 #feffc6 #000000 #000000 0 1;
#X obj 1069 688 sel 0;
#X obj 450 375 tgl 33 0 mm8b3 empty empty 0 -17 0 24 #ffc7c6 #ff0400 #000000 0 1;
#X obj 1074 819 sel 0;
#X msg 656 721 144 \, 13 \, 0;
#X msg 649 751 144 \, 13 \, 127;
#X msg 789 720 144 \, 16 \, 0;
#X msg 782 750 144 \, 16 \, 127;
#X msg 922 721 144 \, 19 \, 0;
#X msg 915 751 144 \, 19 \, 127;
#X msg 1053 719 144 \, 22 \, 0;
#X msg 1046 749 144 \, 22 \, 127;
#X obj 181 660 r mm1b1;
#X obj 301 659 r mm2b1;
#X obj 418 661 r mm3b1;
#X obj 541 660 r mm4b1;
#X obj 672 660 r mm5b1;
#X obj 805 660 r mm6b1;
#X obj 938 661 r mm7b1;
#X obj 1069 659 r mm8b1;
#X obj 718 525 s mm1k1;
#X obj 718 581 s mm1k3;
#X obj 722 609 s mm1s;
#X floatatom 185 242 3 0 127 0 - - - 16;
#X floatatom 186 270 3 0 127 0 - - - 16;
#X floatatom 185 413 3 0 127 0 - - - 16;
#X obj 773 458 pack f f;
#X obj 718 553 s mm1k2;
#X obj 168 100 r mm1k1;
#X floatatom 185 214 3 0 127 0 - - - 16;
#X obj 168 131 r mm1k2;
#X obj 168 161 r mm1k3;
#X obj 171 484 r mm1s;
#X floatatom 223 242 3 0 127 0 - - - 16;
#X floatatom 224 270 3 0 127 0 - - - 16;
#X floatatom 223 413 3 0 127 0 - - - 16;
#X floatatom 223 214 3 0 127 0 - - - 16;
#X obj 211 4 r mm2k1;
#X obj 211 35 r mm2k2;
#X obj 211 65 r mm2k3;
#X obj 244 514 r mm2s;
#X obj 839 525 s mm2k1;
#X obj 839 553 s mm2k2;
#X obj 839 581 s mm2k3;
#X obj 843 609 s mm2s;
#X floatatom 260 242 3 0 127 0 - - - 16;
#X floatatom 261 270 3 0 127 0 - - - 16;
#X floatatom 260 413 3 0 127 0 - - - 16;
#X floatatom 260 214 3 0 127 0 - - - 16;
#X floatatom 298 242 3 0 127 0 - - - 16;
#X floatatom 299 270 3 0 127 0 - - - 16;
#X floatatom 298 413 3 0 127 0 - - - 16;
#X floatatom 298 214 3 0 127 0 - - - 16;
#X obj 253 100 r mm3k1;
#X obj 253 131 r mm3k2;
#X obj 253 161 r mm3k3;
#X obj 256 484 r mm3s;
#X obj 296 4 r mm4k1;
#X obj 296 35 r mm4k2;
#X obj 296 65 r mm4k3;
#X obj 329 514 r mm4s;
#X obj 960 525 s mm3k1;
#X obj 960 553 s mm3k2;
#X obj 960 581 s mm3k3;
#X obj 964 609 s mm3s;
#X obj 1081 525 s mm4k1;
#X obj 1081 553 s mm4k2;
#X obj 1081 581 s mm4k3;
#X obj 1085 609 s mm4s;
#X floatatom 336 242 3 0 127 0 - - - 16;
#X floatatom 337 270 3 0 127 0 - - - 16;
#X floatatom 336 413 3 0 127 0 - - - 16;
#X floatatom 336 214 3 0 127 0 - - - 16;
#X floatatom 374 242 3 0 127 0 - - - 16;
#X floatatom 375 270 3 0 127 0 - - - 16;
#X floatatom 374 413 3 0 127 0 - - - 16;
#X floatatom 374 214 3 0 127 0 - - - 16;
#X floatatom 411 242 3 0 127 0 - - - 16;
#X floatatom 412 270 3 0 127 0 - - - 16;
#X floatatom 412 413 3 0 127 0 - - - 16;
#X floatatom 411 214 3 0 127 0 - - - 16;
#X floatatom 449 242 3 0 127 0 - - - 16;
#X floatatom 450 270 3 0 127 0 - - - 16;
#X floatatom 450 413 3 0 127 0 - - - 16;
#X floatatom 449 214 3 0 127 0 - - - 16;
#X obj 339 100 r mm5k1;
#X obj 339 131 r mm5k2;
#X obj 339 161 r mm5k3;
#X obj 342 484 r mm5s;
#X obj 382 4 r mm6k1;
#X obj 382 35 r mm6k2;
#X obj 382 65 r mm6k3;
#X obj 415 514 r mm6s;
#X obj 424 100 r mm7k1;
#X obj 424 131 r mm7k2;
#X obj 424 161 r mm7k3;
#X obj 427 484 r mm7s;
#X obj 467 4 r mm8k1;
#X obj 467 35 r mm8k2;
#X obj 467 65 r mm8k3;
#X obj 500 514 r mm8s;
#X obj 718 489 route 16 17 18 19 20 21 22 23 24 25 26 27 28 29 30 31 46 47 48 49 50 51 52 53 54 55 56 57 58 59 60 61 62, f 105;
#X obj 1202 525 s mm5k1;
#X obj 1202 553 s mm5k2;
#X obj 1202 581 s mm5k3;
#X obj 1206 609 s mm5s, f 7;
#X obj 1323 525 s mm6k1;
#X obj 1323 553 s mm6k2;
#X obj 1323 581 s mm6k3;
#X obj 1327 609 s mm6s;
#X obj 1444 525 s mm7k1;
#X obj 1444 553 s mm7k2;
#X obj 1444 581 s mm7k3;
#X obj 1448 609 s mm7s;
#X obj 1565 525 s mm8k1;
#X obj 1565 553 s mm8k2;
#X obj 1565 581 s mm8k3;
#X obj 1569 609 s mm8s;
#X obj 1665 557 s mm9s;
#X floatatom 490 413 3 0 127 0 - - - 16;
#X obj 513 485 r mm9s;
#X obj 489 261 tgl 33 0 mm9b1 empty empty 0 -17 0 24 #feffc6 #000000 #000000 0 1;
#X obj 489 299 tgl 33 0 mm9b2 empty empty 0 -17 0 24 #feffc6 #000000 #000000 0 1;
#X obj 489 337 tgl 33 0 mm9b3 empty empty 0 -17 0 24 #dfdfdf #000000 #000000 0 1;
#X msg 808 142 0, f 2;
#X msg 853 142 1, f 2;
#X obj 689 178 sel 27;
#X obj 1198 688 sel 0;
#X obj 1203 819 sel 0;
#X obj 1198 659 r mm9b1;
#X obj 1203 789 r mm9b2;
#X msg 1182 719 144 \, 25 \, 0;
#X msg 1175 749 144 \, 25 \, 127;
#X msg 1188 850 144 \, 26 \, 0;
#X msg 1183 881 144 \, 26 \, 127;
#X obj 762 222 route 1 2 3 4 5 6 7 8 9 10 11 12 13 14 15 16 17 18 19 20 21 22 23 24 25 26 27, f 77;
#X obj 762 178 spigot 1;
#X obj 184 337 tgl 33 0 mm1b2 empty empty 0 -17 0 24 #dfdfdf #000000 #000000 0 1;
#X obj 222 337 tgl 33 0 mm2b2 empty empty 0 -17 0 24 #dfdfdf #000000 #000000 0 1;
#X obj 260 337 tgl 33 0 mm3b2 empty empty 0 -17 0 24 #dfdfdf #000000 #000000 0 1;
#X obj 298 337 tgl 33 0 mm4b2 empty empty 0 -17 0 24 #dfdfdf #000000 #000000 0 1;
#X obj 336 337 tgl 33 0 mm5b2 empty empty 0 -17 0 24 #dfdfdf #000000 #000000 0 1;
#X obj 374 337 tgl 33 0 mm6b2 empty empty 0 -17 0 24 #dfdfdf #000000 #000000 0 1;
#X obj 412 337 tgl 33 0 mm7b2 empty empty 0 -17 0 24 #dfdfdf #000000 #000000 0 1;
#X obj 450 337 tgl 33 0 mm8b2 empty empty 0 -17 0 24 #dfdfdf #000000 #000000 0 1;
#X obj 189 955 sel 0;
#X msg 174 986 144 \, 3 \, 0;
#X msg 169 1017 144 \, 3 \, 127;
#X obj 307 956 sel 0;
#X msg 292 987 144 \, 6 \, 0;
#X msg 287 1018 144 \, 6 \, 127;
#X obj 426 955 sel 0;
#X obj 547 954 sel 0;
#X msg 411 986 144 \, 9 \, 0;
#X msg 406 1017 144 \, 9 \, 127;
#X msg 532 985 144 \, 12 \, 0;
#X msg 527 1016 144 \, 12 \, 127;
#X obj 680 954 sel 0;
#X obj 811 954 sel 0;
#X obj 946 954 sel 0;
#X obj 1075 953 sel 0;
#X msg 665 985 144 \, 15 \, 0;
#X msg 660 1016 144 \, 15 \, 127;
#X msg 796 985 144 \, 18 \, 0;
#X msg 791 1016 144 \, 18 \, 127;
#X msg 931 985 144 \, 21 \, 0;
#X msg 926 1016 144 \, 21 \, 127;
#X msg 1060 984 144 \, 24 \, 0;
#X msg 1055 1015 144 \, 24 \, 127;
#X obj 189 925 r mm1b3;
#X obj 307 925 r mm2b3;
#X obj 426 926 r mm3b3;
#X obj 547 925 r mm4b3;
#X obj 680 925 r mm5b3;
#X obj 811 925 r mm6b3;
#X obj 946 925 r mm7b3;
#X obj 1075 923 r mm8b3;
#X obj 188 791 r mm1b2;
#X msg 173 852 144 \, 2 \, 0;
#X msg 168 883 144 \, 2 \, 127;
#X obj 306 791 r mm2b2;
#X msg 291 853 144 \, 5 \, 0;
#X msg 286 884 144 \, 5 \, 127;
#X obj 425 792 r mm3b2;
#X msg 410 852 144 \, 8 \, 0;
#X msg 405 883 144 \, 8 \, 127;
#X obj 546 791 r mm4b2;
#X msg 531 851 144 \, 11 \, 0;
#X msg 526 882 144 \, 11 \, 127;
#X obj 679 791 r mm5b2;
#X msg 664 851 144 \, 14 \, 0;
#X msg 659 882 144 \, 14 \, 127;
#X obj 810 791 r mm6b2;
#X msg 795 851 144 \, 17 \, 0;
#X msg 790 882 144 \, 17 \, 127;
#X obj 945 791 r mm7b2;
#X msg 930 851 144 \, 20 \, 0;
#X msg 925 882 144 \, 20 \, 127;
#X obj 1074 789 r mm8b2;
#X msg 1059 850 144 \, 23 \, 0;
#X msg 1054 881 144 \, 23 \, 127;
#X obj 808 111 sel 0;
#X obj 1449 258 print MIDIMIX_unknown_midi_note;
#X obj 1736 530 print MIDIMIX_unknown_midi_cc;
#X obj 25 417 r tap_mm5b3;
#X obj 23 9 r tap_mm1b1;
#X obj 23 38 r tap_mm1b2;
#X obj 23 67 r tap_mm1b3;
#X obj 23 96 r tap_mm2b1;
#X obj 23 125 r tap_mm2b2;
#X obj 23 154 r tap_mm2b3;
#X obj 23 183 r tap_mm3b1;
#X obj 23 212 r tap_mm3b2;
#X obj 24 241 r tap_mm3b3;
#X obj 24 271 r tap_mm4b1;
#X obj 24 300 r tap_mm4b2;
#X obj 24 329 r tap_mm4b3;
#X obj 25 359 r tap_mm5b1;
#X obj 25 388 r tap_mm5b2;
#X obj 25 447 r tap_mm6b1;
#X obj 25 476 r tap_mm6b2;
#X obj 25 505 r tap_mm6b3;
#X obj 25 534 r tap_mm7b1;
#X obj 25 563 r tap_mm7b2;
#X obj 25 592 r tap_mm7b3;
#X obj 25 621 r tap_mm8b1;
#X obj 25 650 r tap_mm8b2;
#X obj 25 679 r tap_mm8b3;
#X obj 813 385 swap;
#X obj 835 333 ctlin;
#X obj 882 364 sel 1;
#X obj 773 429 spigot;
#X msg 916 392 0, f 2;
#X msg 882 392 1, f 2;
#X obj 928 11 expr (($f1-1)*16)+1;
#X obj 735 4 notein;
#X obj 818 49 ==, f 2;
#X obj 594 394 savestate;
#X obj 611 435 pack f f;
#X obj 622 356 unpack f f;
#X obj 705 113 spigot 1;
#X text 1183 12 AKAI MIDIMIX interface v1.0 by jamcultur;
#X obj 714 393 max 1;
#X obj 489 379 cnv 20 31 23 empty empty empty 20 12 0 16 #ffffff #404040 0;
#X floatatom 490 380 3 1 5 0 - - - 16;
#X text 484 213 MIDI MIX, f 4;
#X obj 25 709 r tap_mm9b1;
#X obj 25 738 r tap_mm9b2;
#X connect 2 0 3 0;
#X connect 2 1 4 0;
#X connect 3 0 5 0;
#X connect 4 0 5 0;
#X connect 7 0 216 0;
#X connect 7 1 217 0;
#X connect 9 0 12 0;
#X connect 9 1 13 0;
#X connect 11 0 219 0;
#X connect 11 1 220 0;
#X connect 12 0 5 0;
#X connect 13 0 5 0;
#X connect 15 0 22 0;
#X connect 15 1 23 0;
#X connect 17 0 222 0;
#X connect 17 1 223 0;
#X connect 19 0 24 0;
#X connect 19 1 25 0;
#X connect 21 0 225 0;
#X connect 21 1 226 0;
#X connect 22 0 5 0;
#X connect 23 0 5 0;
#X connect 24 0 5 0;
#X connect 25 0 5 0;
#X connect 27 0 42 0;
#X connect 27 1 43 0;
#X connect 29 0 228 0;
#X connect 29 1 229 0;
#X connect 31 0 44 0;
#X connect 31 1 45 0;
#X connect 33 0 231 0;
#X connect 33 1 232 0;
#X connect 35 0 46 0;
#X connect 35 1 47 0;
#X connect 37 0 234 0;
#X connect 37 1 235 0;
#X connect 39 0 48 0;
#X connect 39 1 49 0;
#X connect 41 0 237 0;
#X connect 41 1 238 0;
#X connect 42 0 5 0;
#X connect 43 0 5 0;
#X connect 44 0 5 0;
#X connect 45 0 5 0;
#X connect 46 0 5 0;
#X connect 47 0 5 0;
#X connect 48 0 5 0;
#X connect 49 0 5 0;
#X connect 50 0 2 0;
#X connect 51 0 9 0;
#X connect 52 0 15 0;
#X connect 53 0 19 0;
#X connect 54 0 27 0;
#X connect 55 0 31 0;
#X connect 56 0 35 0;
#X connect 57 0 39 0;
#X connect 64 0 139 0;
#X connect 66 0 67 0;
#X connect 68 0 61 0;
#X connect 69 0 62 0;
#X connect 70 0 63 0;
#X connect 75 0 74 0;
#X connect 76 0 71 0;
#X connect 77 0 72 0;
#X connect 78 0 73 0;
#X connect 91 0 86 0;
#X connect 92 0 83 0;
#X connect 93 0 84 0;
#X connect 94 0 85 0;
#X connect 95 0 90 0;
#X connect 96 0 87 0;
#X connect 97 0 88 0;
#X connect 98 0 89 0;
#X connect 123 0 110 0;
#X connect 124 0 107 0;
#X connect 125 0 108 0;
#X connect 126 0 109 0;
#X connect 127 0 114 0;
#X connect 128 0 111 0;
#X connect 129 0 112 0;
#X connect 130 0 113 0;
#X connect 131 0 118 0;
#X connect 132 0 115 0;
#X connect 133 0 116 0;
#X connect 134 0 117 0;
#X connect 135 0 122 0;
#X connect 136 0 119 0;
#X connect 137 0 120 0;
#X connect 138 0 121 0;
#X connect 139 0 58 0;
#X connect 139 1 65 0;
#X connect 139 2 59 0;
#X connect 139 3 60 0;
#X connect 139 4 79 0;
#X connect 139 5 80 0;
#X connect 139 6 81 0;
#X connect 139 7 82 0;
#X connect 139 8 99 0;
#X connect 139 9 100 0;
#X connect 139 10 101 0;
#X connect 139 11 102 0;
#X connect 139 12 103 0;
#X connect 139 13 104 0;
#X connect 139 14 105 0;
#X connect 139 15 106 0;
#X connect 139 16 140 0;
#X connect 139 17 141 0;
#X connect 139 18 142 0;
#X connect 139 19 143 0;
#X connect 139 20 144 0;
#X connect 139 21 145 0;
#X connect 139 22 146 0;
#X connect 139 23 147 0;
#X connect 139 24 148 0;
#X connect 139 25 149 0;
#X connect 139 26 150 0;
#X connect 139 27 151 0;
#X connect 139 28 152 0;
#X connect 139 29 153 0;
#X connect 139 30 154 0;
#X connect 139 31 155 0;
#X connect 139 32 156 0;
#X connect 139 33 241 0;
#X connect 158 0 157 0;
#X connect 162 0 174 1;
#X connect 163 0 174 1;
#X connect 164 0 161 0;
#X connect 165 0 169 0;
#X connect 165 1 170 0;
#X connect 166 0 171 0;
#X connect 166 1 172 0;
#X connect 167 0 165 0;
#X connect 168 0 166 0;
#X connect 169 0 5 0;
#X connect 170 0 5 0;
#X connect 171 0 5 0;
#X connect 172 0 5 0;
#X connect 173 0 1 0;
#X connect 173 1 175 0;
#X connect 173 2 6 0;
#X connect 173 3 8 0;
#X connect 173 4 176 0;
#X connect 173 5 10 0;
#X connect 173 6 14 0;
#X connect 173 7 177 0;
#X connect 173 8 16 0;
#X connect 173 9 18 0;
#X connect 173 10 178 0;
#X connect 173 11 20 0;
#X connect 173 12 26 0;
#X connect 173 13 179 0;
#X connect 173 14 28 0;
#X connect 173 15 30 0;
#X connect 173 16 180 0;
#X connect 173 17 32 0;
#X connect 173 18 34 0;
#X connect 173 19 181 0;
#X connect 173 20 36 0;
#X connect 173 21 38 0;
#X connect 173 22 182 0;
#X connect 173 23 40 0;
#X connect 173 24 159 0;
#X connect 173 25 160 0;
#X connect 173 27 240 0;
#X connect 174 0 173 0;
#X connect 183 0 184 0;
#X connect 183 1 185 0;
#X connect 184 0 5 0;
#X connect 185 0 5 0;
#X connect 186 0 187 0;
#X connect 186 1 188 0;
#X connect 187 0 5 0;
#X connect 188 0 5 0;
#X connect 189 0 191 0;
#X connect 189 1 192 0;
#X connect 190 0 193 0;
#X connect 190 1 194 0;
#X connect 191 0 5 0;
#X connect 192 0 5 0;
#X connect 193 0 5 0;
#X connect 194 0 5 0;
#X connect 195 0 199 0;
#X connect 195 1 200 0;
#X connect 196 0 201 0;
#X connect 196 1 202 0;
#X connect 197 0 203 0;
#X connect 197 1 204 0;
#X connect 198 0 205 0;
#X connect 198 1 206 0;
#X connect 199 0 5 0;
#X connect 200 0 5 0;
#X connect 201 0 5 0;
#X connect 202 0 5 0;
#X connect 203 0 5 0;
#X connect 204 0 5 0;
#X connect 205 0 5 0;
#X connect 206 0 5 0;
#X connect 207 0 183 0;
#X connect 208 0 186 0;
#X connect 209 0 189 0;
#X connect 210 0 190 0;
#X connect 211 0 195 0;
#X connect 212 0 196 0;
#X connect 213 0 197 0;
#X connect 214 0 198 0;
#X connect 215 0 7 0;
#X connect 216 0 5 0;
#X connect 217 0 5 0;
#X connect 218 0 11 0;
#X connect 219 0 5 0;
#X connect 220 0 5 0;
#X connect 221 0 17 0;
#X connect 222 0 5 0;
#X connect 223 0 5 0;
#X connect 224 0 21 0;
#X connect 225 0 5 0;
#X connect 226 0 5 0;
#X connect 227 0 29 0;
#X connect 228 0 5 0;
#X connect 229 0 5 0;
#X connect 230 0 33 0;
#X connect 231 0 5 0;
#X connect 232 0 5 0;
#X connect 233 0 37 0;
#X connect 234 0 5 0;
#X connect 235 0 5 0;
#X connect 236 0 41 0;
#X connect 237 0 5 0;
#X connect 238 0 5 0;
#X connect 239 0 162 0;
#X connect 239 1 163 0;
#X connect 242 0 28 0;
#X connect 243 0 1 0;
#X connect 244 0 175 0;
#X connect 245 0 6 0;
#X connect 246 0 8 0;
#X connect 247 0 176 0;
#X connect 248 0 10 0;
#X connect 249 0 14 0;
#X connect 250 0 177 0;
#X connect 251 0 16 0;
#X connect 252 0 18 0;
#X connect 253 0 178 0;
#X connect 254 0 20 0;
#X connect 255 0 26 0;
#X connect 256 0 179 0;
#X connect 257 0 30 0;
#X connect 258 0 180 0;
#X connect 259 0 32 0;
#X connect 260 0 34 0;
#X connect 261 0 181 0;
#X connect 262 0 36 0;
#X connect 263 0 38 0;
#X connect 264 0 182 0;
#X connect 265 0 40 0;
#X connect 266 0 269 0;
#X connect 266 1 64 1;
#X connect 267 0 266 0;
#X connect 267 1 266 1;
#X connect 267 2 268 0;
#X connect 268 0 271 0;
#X connect 268 1 270 0;
#X connect 269 0 64 0;
#X connect 270 0 269 1;
#X connect 271 0 269 1;
#X connect 272 0 268 1;
#X connect 272 0 274 1;
#X connect 273 0 278 0;
#X connect 273 1 239 0;
#X connect 273 2 274 0;
#X connect 274 0 278 1;
#X connect 275 0 277 0;
#X connect 275 1 276 0;
#X connect 276 0 275 0;
#X connect 277 1 280 0;
#X connect 278 0 164 0;
#X connect 278 0 174 0;
#X connect 280 0 282 0;
#X connect 282 0 272 0;
#X connect 282 0 276 1;
#X connect 282 0 5 1;
#X connect 284 0 159 0;
#X connect 285 0 160 0;
#X coords 0 -1 1 1 348 230 2 180 210;
